HIERARCHY
ROOT Spine
{
    OFFSET 0.0 0.0 -0.0
    CHANNELS 6 Xposition Yposition Zposition Zrotation Xrotation Yrotation
    JOINT ShoulderCenter
    {
        OFFSET 0.0 32.08944320678711 0.0
        CHANNELS 3 Zrotation Xrotation Yrotation
        JOINT LeftShoulder
        {
            OFFSET 20.294355392456055 0.0 0.0
            CHANNELS 3 Zrotation Xrotation Yrotation
            JOINT LeftElbow
            {
                OFFSET 27.916940689086914 0.0 0.0
                CHANNELS 3 Zrotation Xrotation Yrotation
                JOINT LeftHand
                {
                    OFFSET 31.75433349609375 0.0 0.0
                    CHANNELS 3 Zrotation Xrotation Yrotation
                    End Site
                    {
                        OFFSET 12.70173454284668 0.0 0.0
                    }
                }
            }
        }
        JOINT RightShoulder
        {
            OFFSET -20.294355392456055 0.0 0.0
            CHANNELS 3 Zrotation Xrotation Yrotation
            JOINT RightElbow
            {
                OFFSET -27.916940689086914 0.0 0.0
                CHANNELS 3 Zrotation Xrotation Yrotation
                JOINT RightHand
                {
                    OFFSET -31.75433349609375 0.0 0.0
                    CHANNELS 3 Zrotation Xrotation Yrotation
                    End Site
                    {
                        OFFSET -12.70173454284668 0.0 0.0
                    }
                }
            }
        }
        End Site
        {
            OFFSET 0.0 12.835777282714844 0.0
        }
    }
    JOINT LeftHip
    {
        OFFSET 16.545842549711885 -16.545842549711885 0.0
        CHANNELS 3 Zrotation Xrotation Yrotation
        JOINT LeftKnee
        {
            OFFSET 0.0 -42.84370803833008 0.0
            CHANNELS 3 Zrotation Xrotation Yrotation
            JOINT LeftFoot
            {
                OFFSET 0.0 -42.232818603515625 0.0
                CHANNELS 3 Zrotation Xrotation Yrotation
                End Site
                {
                    OFFSET 0.0 0.0 16.89312744140625
                }
            }
        }
    }
    JOINT RightHip
    {
        OFFSET -16.545842549711885 -16.545842549711885 0.0
        CHANNELS 3 Zrotation Xrotation Yrotation
        JOINT RightKnee
        {
            OFFSET 0.0 -42.84370803833008 0.0
            CHANNELS 3 Zrotation Xrotation Yrotation
            JOINT RightFoot
            {
                OFFSET 0.0 -42.232818603515625 0.0
                CHANNELS 3 Zrotation Xrotation Yrotation
                End Site
                {
                    OFFSET 0.0 0.0 16.89312744140625
                }
            }
        }
    }
}
MOTION
Frames: 4
Frame Time: 0.03333333333333333
54.10000228881836 12.0 -6.700000286102295 4.63067459841522 -1.4311732494920673e-07 -22.340680062745747 -7.237985611274612e-07 -2.984384240266897e-08 2.042506651977882 87.57813794112711 22.984223531798335 178.54953929287757 1.014502332915554e-06 -2.8283032980979105e-07 32.88970659957841 3.1805546814635168e-15 -3.1805546814635168e-15 3.1805546814635168e-15 -98.62375618218941 -4.1358680248784445 177.10983291485337 5.149076315036143e-06 -3.179721988552186e-06 -34.88986377036153 -8.74652537402467e-15 1.2138242319637935e-31 -1.5902773407317582e-15 -2.367728890880485 -13.794531602994557 -3.5387745945784106 4.722273998479697 2.477107922741767 -6.987852093450015 0.0 0.0 -3.975693351829396e-16 -1.0311742388355338 -0.8581915526859516 30.686825673703144 -4.424668444966464 4.0329908468688975 9.794458445008297 7.664528453340272e-34 2.4848083448933722e-17 -3.5346398706108215e-15
54.20000076293945 12.100000381469727 -6.899999618530273 4.630675072485405 -0.17790892533998767 -23.318140624145908 4.160842776396693e-07 2.8822763952844167e-08 2.7348043900535792 88.1751147820015 20.163243975639908 179.62835372741765 -3.2508856302924854e-06 1.470959917963161e-07 35.40036930000426 -9.54166404439055e-15 -2.648343778830095e-31 3.1805546814635168e-15 -100.25568415203698 -5.8036676148642075 175.63995665840932 3.3237158473039112e-06 -1.675057646980498e-06 -38.475165393831205 1.0336802714756429e-14 -1.5902773407317584e-15 -1.590277340731758e-15 -2.1669230049774137 -13.057915579061676 -5.4563634925428754 4.960444468336572 1.5000397777820726 -4.357023741475711 0.0 0.0 -1.9878466759146977e-16 -1.120254445212259 -1.3103947020357636 30.069125716017506 -4.091518646542126 4.259298696181095 10.23677605878079 0.0 0.0 1.3262664540868375e-15
54.400001525878906 12.0 -7.0 4.807955166502644 -0.533574497051782 -23.5893088587743 -1.8100172028198615e-07 3.752715192400005e-08 2.3132951087529574 88.70019291775738 17.841404877201423 -179.22567422246482 1.2398433067693748e-06 1.5817406895201972e-06 39.262156325863586 7.951386703658791e-16 -3.1805546814635168e-15 -3.1805546814635168e-15 -102.67455359293172 -7.863954072628486 174.18688021455262 7.335829629599919e-07 2.2927268776595003e-06 -42.651912553790254 7.951386703658792e-15 1.5902773407317582e-15 -3.1805546814635168e-15 -2.7670162211426623 -12.680453695286898 -5.792309484745407 5.222531776274548 1.3231723042459267 -3.740381041723196 -2.4138550067461805e-33 1.987846675914698e-16 1.3914926731402886e-15 -1.5637334842354944 -1.4136952442352126 29.932694612219034 -3.794880735546309 4.736303869917841 11.477141188639328 0.0 0.0 3.6029721000953897e-16
54.5 12.0 -7.100000381469727 4.807954745525322 -0.8892448372315616 -24.391445899168303 3.517941299366137e-07 -5.073454916698754e-08 2.5208710786411097 89.93422643417688 14.564343840459257 -178.77129738921087 -3.081393721538499e-06 -2.1316250967695574e-06 43.60123240529593 4.770832022195275e-15 -3.1805546814635168e-15 1.3241718894150476e-31 -104.65632930583247 -9.266942982682739 172.66761099368 9.28556763165347e-07 5.766246906925566e-07 -47.20539329634217 -4.7708320221952736e-15 -3.180554681463516e-15 3.180554681463516e-15 -2.7797999357454106 -11.95645791722472 -7.26377981146247 5.24298060123551 0.9127934602378562 -2.557379566944891 2.0172931127807366e-32 -1.7890620083232284e-15 1.2921003393445538e-15 -1.889447055953995 -1.6427490487094356 30.032260647503858 -3.4067324405368757 5.189941217871448 12.76600268237284 1.987846675914698e-16 -4.892366844030205e-33 -2.8202574714539778e-15
